<svg width="1225" height="545" viewBox="0 0 1225 545" fill="none" xmlns="http://www.w3.org/2000/svg">
<path d="M1.15354 629.888C0.593462 630.248 0.199213 630.815 0.0575213 631.466C-0.0841703 632.116 0.0383022 632.796 0.397996 633.356C0.75769 633.916 1.32514 634.311 1.97552 634.452C2.62589 634.594 3.30592 634.471 3.86599 634.112C11.2723 630.194 19.7695 626.099 27.6267 621.932C27.8658 621.807 28.1072 621.681 28.351 621.553C39.0634 615.164 49.1904 609.275 59.4773 602.979C59.9257 602.701 60.3816 602.418 60.8451 602.131C89.9192 584.187 119.002 565.998 147.719 547.39C164.668 536.419 181.554 525.295 198.32 514.049C199.695 513.126 201.077 512.198 202.465 511.264C262.453 470.748 321.628 429.097 379.646 385.699C381.87 384.025 384.174 382.282 386.366 380.615C404.601 366.536 422.931 352.922 439.373 336.074C441.432 333.886 443.428 331.555 445.275 329.248C451.556 321.535 456.339 312.588 459.883 303.499C460.835 301.094 461.72 298.685 462.573 296.273C467.102 283.421 466.132 268.911 459.546 256.828C458.569 255.097 457.418 253.405 456.023 251.848C448.215 244.552 439.406 246.746 431.929 247.008C429.735 247.2 427.561 247.448 425.401 247.715C419.172 248.515 413.85 251.151 408.714 253.58C406.48 254.663 404.285 255.773 402.087 256.896C393.942 261.162 386.512 266.191 379.123 271.33C376.916 272.878 374.723 274.449 372.549 276.04C365.525 281.171 358.812 286.751 352.457 292.672C350.43 294.557 348.432 296.467 346.456 298.394C337.083 307.337 328.784 317.544 321.373 328.059C319.903 330.136 318.453 332.226 317.016 334.331C300.05 359.39 284.604 385.346 270.454 412.064C269.691 413.514 268.931 414.966 268.177 416.42C254.55 442.741 242.37 469.739 231.262 497.18C231.068 497.662 230.877 498.136 230.69 498.603C226.745 508.722 222.454 518.684 220.141 529.795C220.135 529.827 220.128 529.859 220.122 529.891C218.151 539.542 217.836 549.42 218.329 559.057C218.355 559.583 218.391 560.106 218.437 560.627C218.979 567.254 221.413 573.629 224.558 579.153C225.036 580.01 225.591 580.81 226.198 581.546C230.084 586.114 235.143 588.227 239.842 590.056C240.611 590.346 241.393 590.593 242.182 590.801C259.473 594.07 273.551 585.918 287.792 581.442C287.902 581.403 288.012 581.364 288.123 581.324C305.918 574.757 322.124 565.503 337.93 555.831C338.29 555.608 338.651 555.384 339.014 555.158C366.651 537.847 393.045 518.77 418.428 498.357C419.141 497.781 419.853 497.204 420.564 496.626C447.849 474.516 473.386 450.073 496.328 423.432C496.903 422.766 497.478 422.098 498.053 421.427C530.15 383.976 557.183 342.896 583.923 301.874C583.965 301.809 584.008 301.744 584.05 301.679C625.317 237.934 664.977 173.129 707.237 110.293C708.344 108.658 709.439 107.048 710.52 105.463C733.758 71.4815 758.123 38.3364 786.782 9.04851C788.588 7.1823 790.394 5.33897 792.219 3.5C807.239 -11.6344 823.026 -26.0192 839.765 -39.1297C841.748 -40.6829 843.745 -42.2165 845.754 -43.7245C855.558 -51.1037 865.734 -57.8221 876.502 -63.6009C878.476 -64.6676 880.453 -65.7069 882.436 -66.7187C895.101 -73.098 908.42 -79.0416 921.784 -81.7599C923.273 -82.0269 924.771 -82.2053 926.271 -82.2917C937.163 -83.01 947.887 -78.327 956.785 -71.2739C957.51 -70.7071 958.165 -70.0557 958.762 -69.3174C961.501 -65.9768 962.67 -61.053 964.429 -55.6643C964.779 -54.6343 965.014 -53.3989 965.16 -52.1225C965.901 -44.2829 964.517 -35.5373 963.242 -27.0628C962.95 -25.2094 962.55 -23.4099 962.024 -21.6278C960.839 -17.5958 958.974 -13.5852 957.019 -9.50194C956.056 -7.48209 955.062 -5.61536 953.93 -3.75791C940.401 16.6305 922.49 35.1349 905.635 53.9785C903.881 55.9032 901.95 58.0152 900.186 59.9412C845.674 119.252 789.789 177.411 735.653 237.269C733.414 239.757 731.31 242.107 729.1 244.587C707.792 268.902 685.836 292.951 668.661 321.13C666.693 324.397 664.752 327.688 662.911 331.104C659.97 336.469 657.498 342.418 655.707 348.23C654.438 352.236 653.304 356.254 652.24 360.283C650.713 366.1 649.324 371.934 648.185 377.898C647.289 382.63 646.767 387.449 646.709 392.301C646.596 399.946 647.753 407.617 649.761 414.864C651.432 421.108 655.861 425.877 660.299 429.288C662.672 431.124 665.135 432.682 667.596 434.128C673.437 437.373 679.228 437.686 684.756 437.98C695.024 438.296 704.913 437.101 714.729 435.794C719.567 435.151 724.395 433.825 728.869 432.061C732.994 430.448 736.891 428.634 740.747 426.855C744.678 425.045 748.579 423.049 752.326 420.927C774.616 408.04 795.6 393.939 816.946 379.902C819.887 377.954 822.947 375.923 825.937 373.935C892.341 329.722 958.262 284.883 1024.62 240.75C1026.36 239.593 1028.07 238.462 1029.74 237.354C1045.27 227.081 1060.58 216.61 1076.11 206.433C1092.43 195.705 1109.1 185.562 1126.44 176.542C1127.43 176.021 1128.44 175.491 1129.44 174.973C1152.87 162.809 1176.56 151.131 1200.31 139.612C1200.58 139.483 1200.84 139.356 1201.1 139.23C1208.9 135.473 1216.67 131.648 1224.55 128.105C1224.58 128.094 1224.6 128.073 1224.61 128.048C1224.62 128.022 1224.61 127.994 1224.6 127.969C1224.59 127.944 1224.57 127.925 1224.55 127.915C1224.52 127.906 1224.49 127.907 1224.47 127.918C1216.58 131.464 1208.81 135.288 1201.01 139.046C1200.75 139.171 1200.49 139.298 1200.22 139.427C1176.47 150.946 1152.74 162.546 1129.21 174.522C1128.21 175.032 1127.19 175.551 1126.19 176.059C1108.74 184.851 1091.5 194.106 1074.6 203.99C1058.52 213.361 1042.66 223.05 1026.99 233.143C1025.3 234.231 1023.58 235.343 1021.82 236.48C954.892 279.841 888.608 324.163 821.921 367.845C818.919 369.809 815.848 371.814 812.897 373.737C791.519 387.577 770.319 401.606 748.526 414.202C744.875 416.269 741.255 418.252 737.508 420.108C733.726 421.986 729.996 423.842 726.237 425.309C722.15 426.915 718.04 428.038 713.747 428.612C704.117 429.899 694.409 431.025 685.03 430.72C680.048 430.522 674.877 429.786 671.448 427.702C669.164 426.302 666.971 424.855 664.977 423.288C661.189 420.335 658.233 416.85 657.2 412.849C655.378 406.108 654.393 399.279 654.501 392.401C654.561 388.039 655.033 383.682 655.856 379.353C656.946 373.661 658.307 367.943 659.802 362.282C660.844 358.36 661.964 354.448 663.193 350.622C664.947 345.045 667.092 339.953 669.876 334.854C671.613 331.633 673.503 328.429 675.438 325.221C691.94 298.118 713.831 274.041 735.042 249.882C737.243 247.414 739.34 245.075 741.571 242.596C795.592 182.918 851.516 124.8 906.128 65.3825C907.897 63.4512 909.831 61.3305 911.589 59.3952C928.564 40.2952 945.963 22.2002 960.429 0.158333C961.671 -1.90314 962.831 -4.1405 963.82 -6.28165C965.765 -10.4784 967.737 -14.8128 969.098 -19.5837C969.696 -21.6783 970.148 -23.8285 970.46 -25.9686C971.638 -34.7079 973.059 -43.3631 972.199 -52.9288C972.011 -54.54 971.719 -56.2124 971.136 -57.942C969.514 -62.6774 968.363 -68.6356 964.27 -73.7705C963.363 -74.8929 962.32 -75.9381 961.159 -76.8492C951.527 -84.5407 939.027 -90.396 925.868 -89.5852C924.069 -89.4893 922.278 -89.2829 920.507 -88.9724C905.515 -85.9539 892.184 -79.9004 879.052 -73.3789C877.011 -72.3465 874.98 -71.2877 872.952 -70.2019C861.831 -64.2906 851.212 -57.3441 841.187 -49.8206C839.129 -48.2814 837.089 -46.7193 835.066 -45.1401C818.003 -31.8172 801.97 -17.239 786.751 -1.92886C784.903 -0.0685043 783.073 1.79581 781.243 3.68286C752.129 33.3938 727.445 66.9579 704.085 101.068C702.996 102.66 701.896 104.278 700.782 105.921C658.318 168.968 618.627 233.747 577.373 297.347C577.331 297.412 577.289 297.477 577.247 297.541C550.528 338.459 523.497 379.212 491.855 416.114C491.287 416.776 490.719 417.436 490.152 418.093C467.502 444.391 442.52 468.579 415.58 490.513C414.879 491.087 414.175 491.659 413.471 492.231C388.401 512.481 362.163 531.46 334.931 548.609C334.572 548.833 334.215 549.056 333.86 549.277C318.277 558.881 302.693 568.825 285.901 575.25C285.797 575.289 285.693 575.328 285.59 575.366C271.548 580.211 256.828 587.594 243.711 584.907C243.116 584.755 242.534 584.575 241.963 584.365C237.586 582.75 233.315 580.737 230.83 577.731C230.436 577.253 230.093 576.753 229.807 576.234C226.935 571.118 225.039 565.724 224.606 560.104C224.57 559.662 224.543 559.218 224.524 558.772C224.109 549.433 224.491 540.156 226.351 531.159C226.357 531.129 226.364 531.099 226.37 531.069C228.467 520.988 232.725 510.999 236.645 500.992C236.831 500.528 237.02 500.057 237.213 499.58C248.245 472.324 260.363 445.466 273.871 419.375C274.62 417.934 275.373 416.493 276.13 415.056C290.159 388.562 305.294 362.561 321.885 337.627C323.289 335.535 324.703 333.461 326.137 331.403C333.389 320.954 341.024 310.933 350.057 302.029C351.974 300.099 353.915 298.198 355.888 296.336C362.076 290.487 368.583 285.019 375.442 279.985C377.585 278.409 379.749 276.855 381.927 275.327C389.196 270.266 396.627 265.27 404.315 261.26C406.499 260.147 408.67 259.052 410.85 257.998C415.864 255.609 420.94 253.287 425.981 252.761C428.107 252.536 430.225 252.338 432.327 252.2C439.419 251.743 447.9 252.102 451.116 256.08C452.077 257.259 452.959 258.633 453.742 260.06C459.162 270.208 459.944 283.033 456.003 293.936C455.159 296.294 454.297 298.626 453.386 300.928C449.982 309.635 445.677 317.772 439.898 324.933C438.11 327.18 436.3 329.304 434.357 331.372C418.756 347.406 400.314 361.205 382.222 375.171C380.041 376.832 377.747 378.569 375.532 380.24C317.712 423.555 258.586 465.258 198.748 505.744C197.363 506.678 195.985 507.605 194.613 508.527C177.887 519.767 161.04 530.884 144.129 541.849C115.471 560.45 86.4741 578.617 57.4115 596.594C56.9474 596.882 56.4908 597.166 56.0417 597.445C45.8736 603.686 35.8833 611.139 26.0185 617.106C25.7765 617.234 25.5365 617.36 25.2984 617.485C17.314 621.725 9.57303 625.396 1.15354 629.888Z" fill="white" fill-opacity="0.1"/>
</svg>
