<svg width="26" height="26" viewBox="0 0 26 26" fill="none" xmlns="http://www.w3.org/2000/svg">
<path fill-rule="evenodd" clip-rule="evenodd" d="M18.488 22.75H7.51167C6.35467 22.75 5.4165 21.8118 5.4165 20.6548V5.34627C5.4165 4.18927 6.35467 3.2511 7.51167 3.2511H18.4869C19.645 3.2511 20.5832 4.18927 20.5832 5.34627V20.6538C20.5832 21.8118 19.645 22.75 18.488 22.75V22.75Z" stroke="white" stroke-width="1.5" stroke-linecap="round" stroke-linejoin="round"/>
<path d="M20.5832 8.66667H5.4165" stroke="white" stroke-width="1.5" stroke-linecap="round" stroke-linejoin="round"/>
<path d="M8.66862 16.1948C8.69895 16.1948 8.72279 16.2186 8.72279 16.2489C8.72279 16.2793 8.69895 16.3031 8.66862 16.3031C8.63829 16.3031 8.61445 16.2793 8.61445 16.2489C8.61445 16.2197 8.63829 16.1948 8.66862 16.1948" stroke="white" stroke-width="1.5" stroke-linecap="round" stroke-linejoin="round"/>
<path d="M13.0012 16.197C13.0315 16.197 13.0553 16.2208 13.0553 16.2511C13.0553 16.2815 13.0315 16.3053 13.0012 16.3053C12.9708 16.3053 12.947 16.2815 12.947 16.2511C12.9459 16.2208 12.9708 16.197 13.0012 16.197" stroke="white" stroke-width="1.5" stroke-linecap="round" stroke-linejoin="round"/>
<path d="M17.3356 16.1948C17.3659 16.1948 17.3898 16.2186 17.3898 16.2489C17.3898 16.2793 17.3659 16.3031 17.3356 16.3031C17.3053 16.3031 17.2814 16.2793 17.2814 16.2489C17.2814 16.2197 17.3053 16.1948 17.3356 16.1948" stroke="white" stroke-width="1.5" stroke-linecap="round" stroke-linejoin="round"/>
<path d="M8.66862 12.9448C8.69895 12.9448 8.72279 12.9686 8.72279 12.9989C8.72279 13.0293 8.69895 13.0531 8.66862 13.0531C8.63829 13.0531 8.61445 13.0293 8.61445 12.9989C8.61445 12.9697 8.63829 12.9448 8.66862 12.9448" stroke="white" stroke-width="1.5" stroke-linecap="round" stroke-linejoin="round"/>
<path d="M13.0012 12.947C13.0315 12.947 13.0553 12.9708 13.0553 13.0011C13.0553 13.0315 13.0315 13.0553 13.0012 13.0553C12.9708 13.0553 12.947 13.0315 12.947 13.0011C12.9459 12.9708 12.9708 12.947 13.0012 12.947" stroke="white" stroke-width="1.5" stroke-linecap="round" stroke-linejoin="round"/>
<path d="M17.3356 12.9448C17.3659 12.9448 17.3898 12.9686 17.3898 12.9989C17.3898 13.0293 17.3659 13.0531 17.3356 13.0531C17.3053 13.0531 17.2814 13.0293 17.2814 12.9989C17.2814 12.9697 17.3053 12.9448 17.3356 12.9448" stroke="white" stroke-width="1.5" stroke-linecap="round" stroke-linejoin="round"/>
<path d="M8.66862 19.4448C8.69895 19.4448 8.72279 19.4686 8.72279 19.4989C8.72279 19.5293 8.69895 19.5531 8.66862 19.5531C8.63829 19.5531 8.61445 19.5293 8.61445 19.4989C8.61445 19.4697 8.63829 19.4448 8.66862 19.4448" stroke="white" stroke-width="1.5" stroke-linecap="round" stroke-linejoin="round"/>
<path d="M13.0012 19.447C13.0315 19.447 13.0553 19.4708 13.0553 19.5011C13.0553 19.5315 13.0315 19.5553 13.0012 19.5553C12.9708 19.5553 12.947 19.5315 12.947 19.5011C12.9459 19.4708 12.9708 19.447 13.0012 19.447" stroke="white" stroke-width="1.5" stroke-linecap="round" stroke-linejoin="round"/>
<path d="M17.3356 19.4448C17.3659 19.4448 17.3898 19.4686 17.3898 19.4989C17.3898 19.5293 17.3659 19.5531 17.3356 19.5531C17.3053 19.5531 17.2814 19.5293 17.2814 19.4989C17.2814 19.4697 17.3053 19.4448 17.3356 19.4448" stroke="white" stroke-width="1.5" stroke-linecap="round" stroke-linejoin="round"/>
</svg>
