<svg width="26" height="26" viewBox="0 0 26 26" fill="none" xmlns="http://www.w3.org/2000/svg">
<path d="M8.66675 16.25V5.41667C8.66675 4.22005 9.6368 3.25 10.8334 3.25H21.6667C22.8634 3.25 23.8334 4.22005 23.8334 5.41667V19.5C23.8334 20.6966 22.8634 21.6667 21.6667 21.6667H11.0753" stroke="#356FF4" stroke-width="1.5" stroke-linecap="round" stroke-linejoin="round"/>
<path d="M11.8716 7.85425L13.2257 9.20841" stroke="#356FF4" stroke-width="1.5" stroke-linecap="round" stroke-linejoin="round"/>
<path d="M15.3923 7.04175L13.2256 9.20841" stroke="#356FF4" stroke-width="1.5" stroke-linecap="round" stroke-linejoin="round"/>
<path d="M17.875 12.4584H20.5833" stroke="#356FF4" stroke-width="1.5" stroke-linecap="round" stroke-linejoin="round"/>
<path d="M18.4167 16.2499H20.5834" stroke="#356FF4" stroke-width="1.5" stroke-linecap="round" stroke-linejoin="round"/>
<path d="M6.5 23.8334L9.54253 22.6701C10.3823 22.349 11.1014 21.7747 11.6002 21.0268L14.8671 16.128C15.3386 15.4209 15.2455 14.4792 14.6444 13.8782V13.8782C13.9482 13.182 12.8195 13.1819 12.1232 13.8779L9.75007 16.2501H7.58333" stroke="#356FF4" stroke-width="1.5" stroke-linecap="round" stroke-linejoin="round"/>
<path d="M8.66675 10.8333H7.26744C6.76298 10.8332 6.26545 10.9507 5.81423 11.1762L5.18013 11.4932C4.62718 11.7696 4.16453 12.198 3.84648 12.7281L2.16675 15.5277" stroke="#356FF4" stroke-width="1.5" stroke-linecap="round" stroke-linejoin="round"/>
<path d="M17.875 8.66667H20.5833" stroke="#356FF4" stroke-width="1.5" stroke-linecap="round" stroke-linejoin="round"/>
</svg>
