<svg width="26" height="26" viewBox="0 0 26 26" fill="none" xmlns="http://www.w3.org/2000/svg">
<path d="M13.1914 11.1834C13.2972 11.2892 13.2972 11.4607 13.1914 11.5664C13.0857 11.6722 12.9142 11.6722 12.8084 11.5664C12.7026 11.4607 12.7026 11.2892 12.8084 11.1834C12.9142 11.0776 13.0857 11.0776 13.1914 11.1834" stroke="white" stroke-width="1.5" stroke-linecap="round" stroke-linejoin="round"/>
<path d="M17.5249 11.1834C17.6307 11.2892 17.6307 11.4607 17.5249 11.5664C17.4192 11.6722 17.2477 11.6722 17.1419 11.5664C17.0361 11.4607 17.0361 11.2892 17.1419 11.1834C17.2477 11.0776 17.4192 11.0776 17.5249 11.1834" stroke="white" stroke-width="1.5" stroke-linecap="round" stroke-linejoin="round"/>
<path d="M8.85817 11.1834C8.96394 11.2892 8.96394 11.4607 8.85817 11.5664C8.75241 11.6722 8.58093 11.6722 8.47516 11.5664C8.36939 11.4607 8.36939 11.2892 8.47516 11.1834C8.58093 11.0776 8.75241 11.0776 8.85817 11.1834" stroke="white" stroke-width="1.5" stroke-linecap="round" stroke-linejoin="round"/>
<path d="M13 22.75L8.66667 18.4178V18.4167H5.41667C4.21958 18.4167 3.25 17.4471 3.25 16.25V5.41667C3.25 4.21958 4.21958 3.25 5.41667 3.25H20.5833C21.7804 3.25 22.75 4.21958 22.75 5.41667V16.25C22.75 17.4471 21.7804 18.4167 20.5833 18.4167H17.3333L13 22.7489" stroke="white" stroke-width="1.5" stroke-linecap="round" stroke-linejoin="round"/>
</svg>
