<svg width="1193" height="578" viewBox="0 0 1193 578" fill="none" xmlns="http://www.w3.org/2000/svg">
<path d="M1189.73 577.394C1190.37 577.572 1191.06 577.487 1191.64 577.159C1192.22 576.831 1192.64 576.287 1192.82 575.645C1193 575.004 1192.91 574.318 1192.58 573.739C1192.26 573.159 1191.71 572.734 1191.07 572.557C1183.21 569.648 1174.5 566.044 1166.15 562.965C1165.9 562.871 1165.64 562.775 1165.39 562.678C1153.48 558.953 1142.34 555.33 1130.79 551.859C1130.29 551.711 1129.77 551.559 1129.25 551.405C1096.49 541.696 1063.55 532.144 1030.53 523.144C1011.06 517.824 991.507 512.653 971.947 507.654C970.343 507.244 968.73 506.832 967.108 506.42C896.918 488.716 826.424 472.375 755.399 458.06C752.668 457.519 749.833 456.963 747.129 456.441C724.479 452.235 702.111 447.647 678.592 446.623C675.589 446.547 672.521 446.613 669.571 446.775C659.634 447.234 649.776 449.634 640.639 453.051C638.212 453.945 635.826 454.892 633.46 455.863C620.861 461.056 610.692 471.451 606.077 484.415C605.438 486.298 604.943 488.284 604.713 490.361C604.48 501.045 611.987 506.149 617.167 511.548C618.773 513.055 620.407 514.51 622.046 515.942C626.795 520.051 632.308 522.261 637.542 524.469C639.838 525.413 642.129 526.309 644.432 527.198C653.041 530.426 661.742 532.612 670.499 534.693C673.124 535.307 675.757 535.894 678.393 536.454C686.899 538.269 695.534 539.552 704.184 540.342C706.939 540.596 709.695 540.813 712.449 541.001C725.364 542.025 738.504 541.406 751.282 539.921C753.811 539.632 756.335 539.32 758.861 538.988C788.851 534.928 818.495 529.138 847.842 521.873C849.432 521.476 851.021 521.074 852.607 520.668C881.311 513.278 909.554 504.359 937.413 494.345C937.901 494.168 938.382 493.994 938.855 493.823C949.027 490.018 959.314 486.575 969.137 480.891C969.165 480.875 969.193 480.858 969.221 480.842C977.729 475.877 985.302 469.527 992.156 462.735C992.531 462.365 992.897 461.989 993.255 461.608C997.833 456.786 1000.96 450.722 1002.98 444.695C1003.3 443.768 1003.53 442.82 1003.67 441.878C1004.49 435.936 1002.69 430.756 1000.92 426.034C1000.62 425.268 1000.29 424.521 999.916 423.794C990.826 408.726 975.365 403.667 962.535 396.036C962.433 395.98 962.33 395.924 962.227 395.868C945.469 386.982 927.767 381.071 910.021 375.737C909.615 375.618 909.207 375.498 908.797 375.378C877.469 366.318 845.654 359.362 813.518 354.051C812.613 353.903 811.708 353.757 810.804 353.613C776.134 348.014 740.891 345.274 705.738 345.934C704.859 345.949 703.978 345.966 703.094 345.984C653.783 347.027 605.141 354.262 556.738 361.678C556.661 361.69 556.584 361.701 556.508 361.713C481.483 373.449 406.74 387.089 331.731 397.478C329.774 397.743 327.844 398.001 325.942 398.251C285.122 403.584 244.173 407.518 203.238 405.681C200.642 405.578 198.064 405.461 195.478 405.327C174.184 404.221 152.937 402.043 132.006 398.306C129.526 397.863 127.052 397.397 124.589 396.905C112.552 394.516 100.761 391.411 89.2755 387.237C87.1641 386.476 85.0716 385.695 82.9956 384.892C69.7978 379.705 56.4885 373.739 45.5533 365.59C44.3615 364.658 43.2302 363.661 42.1655 362.6C34.369 354.96 30.7109 343.845 30.036 332.511C29.9755 331.593 30.0238 330.669 30.1762 329.732C30.8403 325.464 33.7312 321.31 36.5755 316.407C37.1098 315.459 37.8737 314.46 38.7281 313.501C44.0774 307.722 51.5191 302.924 58.6856 298.225C60.2614 297.206 61.8695 296.305 63.5484 295.509C67.3438 293.704 71.5768 292.421 75.9237 291.157C78.0713 290.528 80.1253 290.024 82.2642 289.63C106.48 286.122 132.213 287.137 157.495 287.138C160.099 287.163 162.961 287.194 165.572 287.225C246.122 288.318 326.727 291.202 407.433 291.65C410.781 291.66 413.935 291.662 417.256 291.656C449.585 291.33 482.148 291.663 514.601 285.679C518.348 284.968 522.095 284.222 525.869 283.316C531.828 281.931 537.91 279.808 543.436 277.269C547.268 275.544 551.019 273.711 554.732 271.818C560.085 269.079 565.359 266.225 570.564 263.097C574.689 260.611 578.629 257.788 582.284 254.596C588.058 249.584 593.005 243.608 597.068 237.28C600.608 231.872 601.21 225.392 600.794 219.81C600.581 216.817 600.099 213.942 599.537 211.143C598.062 204.627 594.435 200.102 590.969 195.785C584.359 187.921 576.876 181.347 569.358 174.901C565.654 171.724 561.447 169.009 557.149 166.851C553.197 164.851 549.247 163.155 545.35 161.467C541.381 159.744 537.293 158.167 533.213 156.788C508.748 148.765 484.249 142.524 459.555 135.971C456.142 135.077 452.589 134.15 449.114 133.247C371.891 113.225 294.523 93.981 217.393 73.9428C215.369 73.4144 213.387 72.8961 211.445 72.3873C193.434 67.6579 175.423 63.2263 157.484 58.4356C138.613 53.4278 119.934 47.7584 101.655 40.8505C100.606 40.4592 99.5359 40.0571 98.4857 39.66C73.796 30.3019 49.3003 20.4297 24.8802 10.4054C24.6069 10.2931 24.3372 10.1822 24.0706 10.0726C16.0728 6.76568 8.04291 3.52517 0.144242 0.00881141C0.11942 -0.00223361 0.0911722 -0.0030091 0.0658065 0.00673942C0.0404293 0.0164981 0.0198878 0.0358523 0.0087997 0.0606722C-0.00220703 0.085583 -0.00298011 0.113788 0.00673549 0.139163C0.0164511 0.164537 0.0358634 0.185006 0.060767 0.196142C7.96524 3.715 15.9941 6.95506 23.9926 10.2622C24.2592 10.3719 24.529 10.4828 24.8022 10.5951C49.223 20.6216 73.6851 30.5725 98.3042 40.1343C99.3513 40.5401 100.418 40.9536 101.462 41.3587C119.647 48.5031 138.038 55.1836 156.669 61.1893C174.374 66.9284 192.168 72.2896 210.14 77.2442C212.077 77.7778 214.055 78.3208 216.075 78.8736C293.012 99.8538 370.236 119.713 447.252 140.3C450.717 141.229 454.259 142.181 457.66 143.099C482.227 149.808 506.817 156.257 530.734 164.104C534.708 165.448 538.599 166.823 542.481 168.38C546.401 169.947 550.271 171.49 553.871 173.313C557.793 175.289 561.37 177.604 564.659 180.421C572.038 186.741 579.349 193.227 585.374 200.421C588.548 204.266 591.447 208.611 592.18 212.556C592.659 215.192 593.041 217.792 593.204 220.323C593.527 225.114 592.9 229.641 590.607 233.078C586.796 238.931 582.363 244.216 577.164 248.721C573.873 251.585 570.311 254.138 566.535 256.41C561.566 259.392 556.397 262.19 551.181 264.848C547.562 266.687 543.9 268.46 540.229 270.094C534.902 272.505 529.677 274.301 524.021 275.625C520.462 276.477 516.813 277.205 513.132 277.901C481.93 283.668 449.389 283.402 417.242 283.697C413.935 283.702 410.794 283.699 407.458 283.687C326.963 283.206 246.362 280.264 165.667 279.169C163.048 279.138 160.178 279.109 157.564 279.089C132.01 279.169 106.924 278.263 80.8507 282.174C78.4864 282.623 76.0454 283.25 73.7903 283.941C69.3651 285.288 64.8196 286.708 60.3562 288.874C58.3968 289.825 56.4923 290.921 54.6896 292.115C47.3898 297.063 39.991 301.773 33.4347 308.792C32.359 310.006 31.3067 311.338 30.4061 312.926C27.9582 317.292 24.2841 322.122 23.1855 328.596C22.9532 330.02 22.8698 331.494 22.9642 332.967C23.6525 345.274 27.6209 358.494 36.9979 367.763C38.2683 369.039 39.6161 370.237 41.0284 371.35C53.2726 380.512 66.6718 386.413 80.2874 391.855C82.4169 392.687 84.5606 393.496 86.7219 394.283C98.5414 398.632 110.798 401.916 123.09 404.373C125.609 404.881 128.133 405.36 130.659 405.815C151.964 409.652 173.519 411.884 195.076 413.022C197.695 413.159 200.304 413.28 202.93 413.386C244.485 415.281 285.959 411.305 326.956 405.978C328.869 405.727 330.808 405.47 332.775 405.205C408.078 394.827 482.823 381.227 557.73 369.578C557.806 369.566 557.883 369.554 557.959 369.543C606.27 362.181 654.667 355.162 703.266 354.146C704.138 354.128 705.008 354.111 705.877 354.097C740.578 353.448 775.261 355.945 809.57 361.402C810.465 361.543 811.36 361.686 812.256 361.83C844.062 367.017 875.701 373.922 906.637 382.788C907.044 382.906 907.448 383.023 907.85 383.14C925.396 388.353 943.197 393.341 959.18 401.573C959.279 401.625 959.377 401.677 959.474 401.728C972.447 408.965 987.763 415.014 994.504 426.583C994.787 427.128 995.042 427.682 995.265 428.247C996.979 432.586 998.326 437.112 997.742 440.968C997.648 441.581 997.504 442.169 997.308 442.729C995.409 448.28 992.653 453.288 988.753 457.358C988.447 457.679 988.134 457.996 987.814 458.308C981.13 464.843 973.96 470.742 966.014 475.353C965.988 475.369 965.961 475.384 965.935 475.4C957.022 480.557 946.738 484.042 936.666 487.792C936.196 487.962 935.719 488.135 935.235 488.31C907.565 498.257 879.467 507.128 851.014 514.453C849.441 514.856 847.865 515.255 846.288 515.648C817.188 522.853 787.718 528.905 758.073 533.161C755.578 533.509 753.089 533.837 750.599 534.141C737.976 535.701 725.417 536.691 712.758 535.894C710.041 535.751 707.331 535.572 704.627 535.342C696.142 534.629 687.729 533.424 679.404 531.668C676.801 531.12 674.2 530.544 671.609 529.939C662.991 527.895 654.313 525.687 646.199 522.629C643.913 521.744 641.65 520.855 639.411 519.932C634.288 517.788 629.173 515.553 625.421 512.145C623.836 510.711 622.276 509.264 620.772 507.789C615.703 502.807 610.317 496.247 611.139 491.198C611.377 489.696 611.813 488.122 612.354 486.587C616.306 475.782 625.344 466.649 636.098 462.319C638.418 461.376 640.731 460.464 643.054 459.608C651.813 456.341 660.748 454.125 669.938 453.659C672.805 453.494 675.595 453.427 678.432 453.496C700.783 454.436 723.363 458.983 745.834 463.159C748.526 463.677 751.35 464.229 754.072 464.766C824.904 478.988 895.404 495.259 965.472 512.871C967.091 513.281 968.701 513.69 970.303 514.098C989.831 519.072 1009.35 524.219 1028.79 529.514C1061.76 538.475 1094.64 547.977 1127.41 557.656C1127.93 557.809 1128.45 557.961 1128.96 558.109C1140.39 561.528 1152.6 564.006 1163.63 567.381C1163.88 567.476 1164.14 567.571 1164.39 567.665C1172.87 570.79 1180.77 574.113 1189.73 577.394Z" fill="white" fill-opacity="0.1"/>
</svg>
