<svg width="26" height="26" viewBox="0 0 26 26" fill="none" xmlns="http://www.w3.org/2000/svg">
<path fill-rule="evenodd" clip-rule="evenodd" d="M14.3227 15.1669C13.3537 16.2527 11.7798 16.5597 10.4739 15.9175C9.16789 15.2753 8.45003 13.8414 8.71842 12.4111C8.96815 11.0799 10.0133 10.0409 11.3459 9.79887C12.4505 9.60264 13.5778 9.99445 14.3227 10.8335H23.2918C23.5909 10.8335 23.8334 11.076 23.8334 11.3752V14.6252C23.8334 14.9243 23.5909 15.1669 23.2918 15.1669H14.3227Z" stroke="#356FF4" stroke-width="1.5" stroke-linecap="round" stroke-linejoin="round"/>
<path d="M18.4168 15.1667V20.5833C18.417 21.158 18.1888 21.7092 17.7824 22.1156C17.376 22.5219 16.8248 22.7502 16.2502 22.75H6.50016C5.92548 22.7502 5.37429 22.5219 4.96792 22.1156C4.56156 21.7092 4.33334 21.158 4.3335 20.5833V5.41667C4.33334 4.84198 4.56156 4.29079 4.96792 3.88443C5.37429 3.47806 5.92548 3.24984 6.50016 3.25H16.2502C16.8248 3.24984 17.376 3.47806 17.7824 3.88443C18.1888 4.29079 18.417 4.84198 18.4168 5.41667V10.8333" stroke="#356FF4" stroke-width="1.5" stroke-linecap="round" stroke-linejoin="round"/>
</svg>
