<svg width="878" height="569" viewBox="0 0 878 569" fill="none" xmlns="http://www.w3.org/2000/svg">
<path d="M874.148 577.394C874.789 577.572 875.475 577.487 876.054 577.159C876.633 576.831 877.059 576.287 877.236 575.645C877.414 575.004 877.329 574.318 877.001 573.739C876.674 573.159 876.129 572.734 875.487 572.557C867.63 569.648 858.913 566.044 850.569 562.965C850.316 562.871 850.061 562.775 849.804 562.678C837.9 558.953 826.76 555.33 815.209 551.859C814.703 551.711 814.188 551.559 813.665 551.405C780.908 541.696 747.962 532.144 714.949 523.144C695.472 517.824 675.923 512.653 656.364 507.654C654.759 507.244 653.146 506.832 651.525 506.42C581.335 488.716 510.84 472.375 439.815 458.06C437.085 457.519 434.25 456.963 431.546 456.441C408.895 452.235 386.528 447.647 363.009 446.623C360.006 446.547 356.938 446.613 353.987 446.775C344.051 447.234 334.193 449.634 325.056 453.051C322.629 453.945 320.243 454.892 317.877 455.863C305.278 461.056 295.109 471.451 290.493 484.415C289.854 486.298 289.36 488.284 289.129 490.361C288.897 501.045 296.404 506.149 301.584 511.548C303.19 513.055 304.824 514.51 306.462 515.942C311.212 520.051 316.724 522.261 321.959 524.469C324.255 525.413 326.546 526.309 328.848 527.198C337.458 530.426 346.159 532.612 354.915 534.693C357.541 535.307 360.174 535.894 362.81 536.454C371.316 538.269 379.95 539.552 388.601 540.342C391.356 540.596 394.112 540.813 396.866 541.001C409.78 542.025 422.921 541.406 435.699 539.921C438.228 539.632 440.752 539.32 443.278 538.988C473.267 534.928 502.911 529.138 532.259 521.873C533.848 521.476 535.437 521.074 537.024 520.668C565.727 513.278 593.971 504.359 621.83 494.345C622.318 494.168 622.799 493.994 623.272 493.823C633.444 490.018 643.731 486.575 653.554 480.891C653.582 480.875 653.61 480.858 653.638 480.842C662.146 475.877 669.719 469.527 676.573 462.735C676.948 462.365 677.314 461.989 677.672 461.608C682.25 456.786 685.379 450.722 687.4 444.695C687.72 443.768 687.946 442.82 688.09 441.878C688.905 435.936 687.107 430.756 685.338 426.034C685.041 425.268 684.705 424.521 684.333 423.794C675.243 408.726 659.782 403.667 646.952 396.036C646.849 395.98 646.747 395.924 646.643 395.868C629.886 386.982 612.184 381.071 594.437 375.737C594.032 375.618 593.624 375.498 593.213 375.378C561.886 366.318 530.071 359.362 497.934 354.051C497.03 353.903 496.125 353.757 495.22 353.613C460.551 348.014 425.308 345.274 390.155 345.934C389.276 345.949 388.394 345.966 387.511 345.984C338.199 347.027 289.557 354.262 241.155 361.678C241.078 361.69 241.001 361.701 240.925 361.713C165.9 373.449 91.1565 387.089 16.1481 397.478C14.1908 397.743 12.2612 398.001 10.3589 398.251C-30.4611 403.584 -71.4098 407.518 -112.345 405.681C-114.941 405.578 -117.519 405.461 -120.106 405.327C-141.399 404.221 -162.646 402.043 -183.577 398.306C-186.057 397.863 -188.531 397.397 -190.995 396.905C-203.031 394.516 -214.822 391.411 -226.308 387.237C-228.419 386.476 -230.512 385.695 -232.588 384.892C-245.785 379.705 -259.095 373.739 -270.03 365.59C-271.222 364.658 -272.353 363.661 -273.418 362.6C-281.214 354.96 -284.872 343.845 -285.547 332.511C-285.608 331.593 -285.559 330.669 -285.407 329.732C-284.743 325.464 -281.852 321.31 -279.008 316.407C-278.473 315.459 -277.71 314.46 -276.855 313.501C-271.506 307.722 -264.064 302.924 -256.898 298.225C-255.322 297.206 -253.714 296.305 -252.035 295.509C-248.239 293.704 -244.006 292.421 -239.66 291.157C-237.512 290.528 -235.458 290.024 -233.319 289.63C-209.103 286.122 -183.37 287.137 -158.088 287.138C-155.484 287.163 -152.623 287.194 -150.011 287.225C-69.4617 288.318 11.1438 291.202 91.8495 291.65C95.1975 291.66 98.3514 291.662 101.673 291.656C134.002 291.33 166.564 291.663 199.018 285.679C202.765 284.968 206.512 284.222 210.286 283.316C216.245 281.931 222.327 279.808 227.852 277.269C231.685 275.544 235.436 273.711 239.149 271.818C244.502 269.079 249.776 266.225 254.981 263.097C259.106 260.611 263.046 257.788 266.701 254.596C272.475 249.584 277.421 243.608 281.484 237.28C285.025 231.872 285.627 225.392 285.211 219.81C284.997 216.817 284.516 213.942 283.954 211.143C282.478 204.627 278.851 200.102 275.386 195.785C268.776 187.921 261.293 181.347 253.775 174.901C250.071 171.724 245.863 169.009 241.566 166.851C237.613 164.851 233.664 163.155 229.767 161.467C225.798 159.744 221.71 158.167 217.63 156.788C193.165 148.765 168.665 142.524 143.972 135.971C140.559 135.077 137.006 134.15 133.531 133.247C56.3075 113.225 -21.0605 93.981 -98.1904 73.9428C-100.214 73.4144 -102.196 72.8961 -104.138 72.3873C-122.149 67.6579 -140.161 63.2263 -158.099 58.4356C-176.97 53.4278 -195.649 47.7584 -213.928 40.8505C-214.977 40.4592 -216.047 40.0571 -217.098 39.66C-241.787 30.3019 -266.283 20.4297 -290.703 10.4054C-290.976 10.2931 -291.246 10.1822 -291.513 10.0726C-299.51 6.76568 -307.54 3.52517 -315.439 0.00881141C-315.464 -0.00223361 -315.492 -0.0030091 -315.517 0.00673942C-315.543 0.0164981 -315.563 0.0358523 -315.574 0.0606722C-315.585 0.085583 -315.586 0.113788 -315.577 0.139163C-315.567 0.164537 -315.547 0.185006 -315.522 0.196142C-307.618 3.715 -299.589 6.95506 -291.591 10.2622C-291.324 10.3719 -291.054 10.4828 -290.781 10.5951C-266.36 20.6216 -241.898 30.5725 -217.279 40.1343C-216.232 40.5401 -215.165 40.9536 -214.121 41.3587C-195.937 48.5031 -177.545 55.1836 -158.914 61.1893C-141.209 66.9284 -123.415 72.2896 -105.443 77.2442C-103.506 77.7778 -101.528 78.3208 -99.5087 78.8736C-22.5712 99.8538 54.6526 119.713 131.669 140.3C135.134 141.229 138.675 142.181 142.077 143.099C166.644 149.808 191.234 156.257 215.15 164.104C219.125 165.448 223.016 166.823 226.897 168.38C230.818 169.947 234.688 171.49 238.288 173.313C242.21 175.289 245.786 177.604 249.076 180.421C256.455 186.741 263.766 193.227 269.791 200.421C272.965 204.266 275.864 208.611 276.596 212.556C277.076 215.192 277.458 217.792 277.621 220.323C277.944 225.114 277.316 229.641 275.024 233.078C271.213 238.931 266.78 244.216 261.581 248.721C258.29 251.585 254.727 254.138 250.952 256.41C245.982 259.392 240.814 262.19 235.597 264.848C231.979 266.687 228.316 268.46 224.646 270.094C219.319 272.505 214.094 274.301 208.437 275.625C204.878 276.477 201.23 277.205 197.549 277.901C166.347 283.668 133.806 283.402 101.659 283.697C98.3517 283.702 95.2104 283.699 91.875 283.687C11.3799 283.206 -69.221 280.264 -149.916 279.169C-152.535 279.138 -155.406 279.109 -158.019 279.089C-183.573 279.169 -208.659 278.263 -234.733 282.174C-237.097 282.623 -239.538 283.25 -241.793 283.941C-246.218 285.288 -250.764 286.708 -255.227 288.874C-257.186 289.825 -259.091 290.921 -260.894 292.115C-268.193 297.063 -275.592 301.773 -282.149 308.792C-283.224 310.006 -284.277 311.338 -285.177 312.926C-287.625 317.292 -291.299 322.122 -292.398 328.596C-292.63 330.02 -292.713 331.494 -292.619 332.967C-291.931 345.274 -287.962 358.494 -278.585 367.763C-277.315 369.039 -275.967 370.237 -274.555 371.35C-262.311 380.512 -248.911 386.413 -235.296 391.855C-233.166 392.687 -231.023 393.496 -228.861 394.283C-217.042 398.632 -204.785 401.916 -192.494 404.373C-189.975 404.881 -187.45 405.36 -184.925 405.815C-163.619 409.652 -142.065 411.884 -120.507 413.022C-117.888 413.159 -115.279 413.28 -112.653 413.386C-71.098 415.281 -29.6243 411.305 11.3731 405.978C13.2856 405.727 15.225 405.47 17.1921 405.205C92.4945 394.827 167.239 381.227 242.146 369.578C242.223 369.566 242.299 369.554 242.376 369.543C290.686 362.181 339.083 355.162 387.683 354.146C388.555 354.128 389.425 354.111 390.293 354.097C424.995 353.448 459.678 355.945 493.986 361.402C494.881 361.543 495.777 361.686 496.673 361.83C528.479 367.017 560.118 373.922 591.054 382.788C591.461 382.906 591.865 383.023 592.266 383.14C609.813 388.353 627.614 393.341 643.597 401.573C643.695 401.625 643.793 401.677 643.891 401.728C656.863 408.965 672.179 415.014 678.92 426.583C679.204 427.128 679.458 427.682 679.682 428.247C681.396 432.586 682.742 437.112 682.159 440.968C682.065 441.581 681.921 442.169 681.725 442.729C679.826 448.28 677.07 453.288 673.169 457.358C672.864 457.679 672.551 457.996 672.231 458.308C665.546 464.843 658.377 470.742 650.431 475.353C650.405 475.369 650.378 475.384 650.351 475.4C641.439 480.557 631.155 484.042 621.083 487.792C620.613 487.962 620.136 488.135 619.651 488.31C591.981 498.257 563.884 507.128 535.43 514.453C533.857 514.856 532.281 515.255 530.705 515.648C501.605 522.853 472.135 528.905 442.489 533.161C439.994 533.509 437.505 533.837 435.016 534.141C422.393 535.701 409.834 536.691 397.175 535.894C394.458 535.751 391.747 535.572 389.044 535.342C380.559 534.629 372.146 533.424 363.821 531.668C361.218 531.12 358.617 530.544 356.026 529.939C347.408 527.895 338.73 525.687 330.615 522.629C328.33 521.744 326.067 520.855 323.828 519.932C318.704 517.788 313.59 515.553 309.837 512.145C308.253 510.711 306.693 509.264 305.189 507.789C300.12 502.807 294.734 496.247 295.556 491.198C295.793 489.696 296.229 488.122 296.771 486.587C300.722 475.782 309.761 466.649 320.514 462.319C322.835 461.376 325.148 460.464 327.471 459.608C336.23 456.341 345.165 454.125 354.355 453.659C357.222 453.494 360.012 453.427 362.849 453.496C385.2 454.436 407.78 458.983 430.25 463.159C432.942 463.677 435.767 464.229 438.489 464.766C509.32 478.988 579.821 495.259 649.889 512.871C651.507 513.281 653.118 513.69 654.72 514.098C674.247 519.072 693.765 524.219 713.211 529.514C746.181 538.475 779.053 547.977 811.827 557.656C812.351 557.809 812.867 557.961 813.374 558.109C824.805 561.528 837.02 564.006 848.044 567.381C848.301 567.476 848.555 567.571 848.806 567.665C857.29 570.79 865.186 574.113 874.148 577.394Z" fill="#D9D9D9" fill-opacity="0.3"/>
</svg>
