<svg width="26" height="26" viewBox="0 0 26 26" fill="none" xmlns="http://www.w3.org/2000/svg">
<path d="M3.24609 17.0642H5.77565C6.1589 17.0644 6.52654 16.9124 6.79766 16.6415V16.6415C7.06853 16.3704 7.22058 16.0028 7.22033 15.6195V9.83861C7.22058 9.45536 7.06853 9.08772 6.79766 8.8166V8.8166C6.52654 8.54572 6.1589 8.39368 5.77565 8.39392H3.25368" stroke="#356FF4" stroke-width="1.5" stroke-linecap="round" stroke-linejoin="round"/>
<path d="M22.7468 8.39392H20.2259C19.8427 8.39368 19.475 8.54572 19.2039 8.8166V8.8166C18.9331 9.08772 18.781 9.45536 18.7813 9.83861V15.6195C18.781 16.0028 18.9331 16.3704 19.2039 16.6415V16.6415C19.475 16.9124 19.8427 17.0644 20.2259 17.0642H22.7468" stroke="#356FF4" stroke-width="1.5" stroke-linecap="round" stroke-linejoin="round"/>
<rect x="3.24609" y="3.24597" width="19.5081" height="19.5081" rx="5" stroke="#356FF4" stroke-width="1.5" stroke-linecap="round" stroke-linejoin="round"/>
<path d="M18.8026 15.8688H17.8705C17.5605 15.8685 17.2541 15.9351 16.9721 16.0639L12.4126 18.1404" stroke="#356FF4" stroke-width="1.5" stroke-linecap="round" stroke-linejoin="round"/>
<path d="M11.5317 9.38888C10.9834 9.06234 10.3186 8.99566 9.71634 9.20681L7.22363 10.1053" stroke="#356FF4" stroke-width="1.5" stroke-linecap="round" stroke-linejoin="round"/>
<path d="M18.9546 9.13737L15.8376 7.7653C15.1697 7.47132 14.3986 7.53324 13.786 7.93003L10.9574 9.76271C10.5323 10.0382 10.2592 10.4955 10.2182 11.0004C10.1773 11.5053 10.3731 12.0006 10.7482 12.341V12.341C11.2351 12.782 11.9388 12.8883 12.5343 12.6109L14.2206 11.8241" stroke="#356FF4" stroke-width="1.5" stroke-linecap="round" stroke-linejoin="round"/>
<path d="M14.2205 11.823L15.0767 12.6001C15.5287 13.0096 15.7873 13.5906 15.7889 14.2005C15.7906 14.8105 15.5352 15.3929 15.0854 15.8048L12.8994 17.8055C12.0742 18.5608 10.8098 18.564 9.98075 17.8131L8.47862 16.4508C8.12187 16.1336 7.67042 15.9432 7.19434 15.9089" stroke="#356FF4" stroke-width="1.5" stroke-linecap="round" stroke-linejoin="round"/>
</svg>
