<svg width="26" height="26" viewBox="0 0 26 26" fill="none" xmlns="http://www.w3.org/2000/svg">
<path fill-rule="evenodd" clip-rule="evenodd" d="M10.2031 18.8208V17.289H12.1184L13.7445 15.6629L15.9892 16.6162C16.8028 16.9618 17.7442 16.7787 18.3682 16.1536L21.5564 12.9654C22.1815 12.3403 22.3635 11.3989 22.019 10.5864L20.3918 6.75571C20.173 6.23896 19.7613 5.82838 19.2446 5.60846L15.4139 3.9813C14.6003 3.63571 13.66 3.8188 13.0349 4.44388L9.84668 7.63213C9.22268 8.25613 9.0396 9.19755 9.38518 10.0111L10.3136 12.1984L3.7876 18.7244V22.1715H7.23476L8.67126 20.735V18.8197H10.2031V18.8208Z" stroke="#356FF4" stroke-width="1.5" stroke-linecap="round" stroke-linejoin="round"/>
<path d="M15.5742 9.6352C15.3153 9.63629 15.1051 9.84645 15.1062 10.1054C15.1062 10.3643 15.3175 10.5745 15.5764 10.5734C15.8353 10.5734 16.0455 10.3632 16.0455 10.1043C16.0455 9.84537 15.8353 9.6352 15.5764 9.6352" stroke="#356FF4" stroke-width="1.5" stroke-linecap="round" stroke-linejoin="round"/>
</svg>
