<svg width="170" height="42" viewBox="0 0 170 42" fill="none" xmlns="http://www.w3.org/2000/svg">
<path fill-rule="evenodd" clip-rule="evenodd" d="M29.0772 39.8954H1.61582H1.60569H0V42H30.6829V39.8954H29.0772Z" fill="#363340"/>
<path fill-rule="evenodd" clip-rule="evenodd" d="M23.808 36.7714H6.87476C6.84437 36.7815 6.80512 36.7815 6.77472 36.7815C6.7342 36.7815 6.70508 36.7815 6.67469 36.7714H4.15978C4.12938 36.7815 4.09013 36.7815 4.05974 36.7815C4.01921 36.7815 3.99009 36.7815 3.9597 36.7714H2.12354V38.8874H28.5871V36.7714H26.7509C26.7205 36.7815 26.6813 36.7815 26.6509 36.7815C26.6205 36.7815 26.5812 36.7815 26.5508 36.7714H24.0359C24.0055 36.7815 23.9663 36.7815 23.9359 36.7815C23.8776 36.7815 23.8485 36.7815 23.808 36.7714Z" fill="#356FF4"/>
<path fill-rule="evenodd" clip-rule="evenodd" d="M7.27368 2.71499V35.7533H23.4091V2.71499H7.27368ZM20.0762 20.9854C19.1188 20.9854 18.3299 20.2067 18.3299 19.2392C18.3299 18.2818 19.1087 17.4929 20.0762 17.4929C21.0335 17.4929 21.8224 18.2717 21.8224 19.2392C21.8224 20.2067 21.0335 20.9854 20.0762 20.9854Z" fill="#363340"/>
<path fill-rule="evenodd" clip-rule="evenodd" d="M24.4171 2.21606V35.7634H26.1329V0.519191C26.1329 0.229204 25.9037 0 25.6138 0H5.069C4.77901 0 4.5498 0.229204 4.5498 0.519191V35.7634H6.26567V2.21606C6.26567 1.9362 6.49487 1.707 6.77473 1.707H23.9182C24.1967 1.707 24.4171 1.9362 24.4171 2.21606Z" fill="#356FF4"/>
<path fill-rule="evenodd" clip-rule="evenodd" d="M20.0762 18.5009C19.6671 18.5009 19.3379 18.8302 19.3379 19.2392C19.3379 19.6482 19.6671 19.9775 20.0762 19.9775C20.4852 19.9775 20.8144 19.6482 20.8144 19.2392C20.8144 18.8302 20.475 18.5009 20.0762 18.5009Z" fill="#356FF4"/>
<path d="M42.7375 19V4.44922H45.3743V10.6113H52.1125V4.44922H54.7493V19H52.1125V12.8281H45.3743V19H42.7375ZM58.7336 19H55.9114L61.0481 4.44922H64.2903L69.4172 19H66.6047L62.718 7.4375H62.6008L58.7336 19ZM58.8313 13.2969H66.4973V15.4062H58.8313V13.2969ZM76.1653 19.1953C74.8892 19.1953 73.7467 18.8991 72.7375 18.3066C71.7349 17.7142 70.9439 16.8613 70.3645 15.748C69.7916 14.6348 69.5051 13.2969 69.5051 11.7344C69.5051 10.1654 69.7948 8.82422 70.3743 7.71094C70.9602 6.59115 71.7545 5.73503 72.7571 5.14258C73.7662 4.55013 74.9023 4.25391 76.1653 4.25391C76.9661 4.25391 77.7148 4.36784 78.4114 4.5957C79.1145 4.82357 79.7395 5.15885 80.2864 5.60156C80.8333 6.03776 81.2792 6.57487 81.6243 7.21289C81.9758 7.8444 82.2069 8.5638 82.3176 9.37109H79.6614C79.5898 8.92839 79.4498 8.53776 79.2415 8.19922C79.0396 7.86068 78.7857 7.57422 78.4797 7.33984C78.1803 7.09896 77.8385 6.91992 77.4543 6.80273C77.0702 6.67904 76.6568 6.61719 76.2141 6.61719C75.4198 6.61719 74.7167 6.81576 74.1047 7.21289C73.4928 7.60352 73.0142 8.18294 72.6692 8.95117C72.3241 9.71289 72.1516 10.6406 72.1516 11.7344C72.1516 12.8411 72.3241 13.7754 72.6692 14.5371C73.0208 15.2923 73.4993 15.8652 74.1047 16.2559C74.7167 16.64 75.4166 16.832 76.2043 16.832C76.6405 16.832 77.0474 16.7767 77.425 16.666C77.8027 16.5488 78.1444 16.3763 78.4504 16.1484C78.7629 15.9141 79.0201 15.6341 79.2219 15.3086C79.4303 14.9766 79.5767 14.5957 79.6614 14.166H82.3176C82.22 14.8626 82.0051 15.5169 81.6731 16.1289C81.3476 16.7344 80.9179 17.2682 80.384 17.7305C79.8567 18.1862 79.2382 18.5443 78.5286 18.8047C77.8189 19.0651 77.0312 19.1953 76.1653 19.1953ZM83.3723 6.65625V4.44922H94.9739V6.65625H90.4817V19H87.8743V6.65625H83.3723ZM102.152 19.1953C100.882 19.1953 99.7395 18.8991 98.7239 18.3066C97.7148 17.7142 96.9172 16.8613 96.3313 15.748C95.7519 14.6348 95.4622 13.2969 95.4622 11.7344C95.4622 10.1654 95.7519 8.82422 96.3313 7.71094C96.9172 6.59115 97.7148 5.73503 98.7239 5.14258C99.7395 4.55013 100.882 4.25391 102.152 4.25391C103.428 4.25391 104.567 4.55013 105.57 5.14258C106.572 5.73503 107.366 6.59115 107.952 7.71094C108.538 8.82422 108.831 10.1654 108.831 11.7344C108.831 13.2969 108.538 14.6348 107.952 15.748C107.366 16.8613 106.572 17.7142 105.57 18.3066C104.567 18.8991 103.428 19.1953 102.152 19.1953ZM102.152 16.832C102.939 16.832 103.636 16.6367 104.241 16.2461C104.847 15.8555 105.322 15.2826 105.667 14.5273C106.012 13.7656 106.185 12.8346 106.185 11.7344C106.185 10.6276 106.012 9.69336 105.667 8.93164C105.322 8.16992 104.847 7.59375 104.241 7.20312C103.636 6.8125 102.939 6.61719 102.152 6.61719C101.364 6.61719 100.664 6.8125 100.052 7.20312C99.4465 7.59375 98.9713 8.16992 98.6262 8.93164C98.2812 9.69336 98.1086 10.6276 98.1086 11.7344C98.1086 12.8346 98.2812 13.7656 98.6262 14.5273C98.9713 15.2826 99.4465 15.8555 100.052 16.2461C100.664 16.6367 101.364 16.832 102.152 16.832ZM121.312 19H118.675V6.65625H116.273C115.615 6.64974 115.075 6.74414 114.652 6.93945C114.235 7.13477 113.926 7.41797 113.724 7.78906C113.522 8.15365 113.418 8.5931 113.411 9.10742C113.418 9.62174 113.519 10.0579 113.714 10.416C113.916 10.7676 114.225 11.0345 114.642 11.2168C115.065 11.3991 115.602 11.4902 116.253 11.4902H119.788V13.668H115.892C114.779 13.668 113.838 13.4824 113.07 13.1113C112.301 12.7402 111.719 12.2129 111.322 11.5293C110.931 10.8457 110.736 10.0384 110.736 9.10742C110.736 8.18294 110.931 7.3724 111.322 6.67578C111.712 5.97266 112.288 5.42578 113.05 5.03516C113.812 4.64453 114.749 4.44922 115.863 4.44922H121.312V19ZM113.802 12.3984H116.683L113.138 19H110.208L113.802 12.3984ZM142.025 16.8906L141.829 22.4277H139.388V19H138.138V16.8906H142.025ZM123.421 4.44922H126.019V16.8125H130.511V4.44922H133.089V16.8125H137.542V4.44922H140.12V19H123.421V4.44922ZM145.218 19H142.396L147.532 4.44922H150.775L155.902 19H153.089L149.202 7.4375H149.085L145.218 19ZM145.316 13.2969H152.982V15.4062H145.316V13.2969ZM167.816 19H165.179V6.65625H162.777C162.119 6.64974 161.579 6.74414 161.156 6.93945C160.739 7.13477 160.43 7.41797 160.228 7.78906C160.026 8.15365 159.922 8.5931 159.915 9.10742C159.922 9.62174 160.023 10.0579 160.218 10.416C160.42 10.7676 160.729 11.0345 161.146 11.2168C161.569 11.3991 162.106 11.4902 162.757 11.4902H166.292V13.668H162.396C161.282 13.668 160.342 13.4824 159.573 13.1113C158.805 12.7402 158.223 12.2129 157.825 11.5293C157.435 10.8457 157.24 10.0384 157.24 9.10742C157.24 8.18294 157.435 7.3724 157.825 6.67578C158.216 5.97266 158.792 5.42578 159.554 5.03516C160.316 4.64453 161.253 4.44922 162.366 4.44922H167.816V19ZM160.306 12.3984H163.187L159.642 19H156.712L160.306 12.3984ZM41.636 40.5156V36.5312H42.3391C42.5214 36.3646 42.6777 36.1667 42.8079 35.9375C42.9381 35.7031 43.0448 35.4271 43.1282 35.1094C43.2167 34.7865 43.2922 34.4141 43.3547 33.9922C43.4172 33.5703 43.4719 33.0833 43.5188 32.5312L43.7922 29.2656H49.7219V36.5312H51.0657V40.5156H49.4016V38H43.3235V40.5156H41.636ZM44.1672 36.5312H48.0657V30.7188H45.3079L45.1204 32.5312C45.0422 33.4531 44.9355 34.25 44.8 34.9219C44.6698 35.5885 44.4589 36.125 44.1672 36.5312ZM52.0579 38V29.2656H55.6672C56.6516 29.2708 57.4329 29.4844 58.011 29.9062C58.5891 30.3229 58.8756 30.8906 58.8704 31.6094C58.8756 32.1198 58.7141 32.5234 58.386 32.8203C58.0579 33.112 57.6282 33.3125 57.0969 33.4219C57.4823 33.4635 57.8365 33.5781 58.1594 33.7656C58.4875 33.9531 58.7506 34.2057 58.9485 34.5234C59.1516 34.8359 59.2532 35.2083 59.2532 35.6406C59.2532 36.1042 59.1308 36.5156 58.886 36.875C58.6464 37.2292 58.3027 37.5052 57.8547 37.7031C57.4068 37.901 56.8625 38 56.2219 38H52.0579ZM53.6516 36.5703H56.2219C56.6386 36.5755 56.9667 36.4792 57.2063 36.2812C57.4459 36.0781 57.5631 35.8047 57.5579 35.4609C57.5631 35.0547 57.4459 34.737 57.2063 34.5078C56.9667 34.2734 56.6386 34.1562 56.2219 34.1562H53.6516V36.5703ZM53.6516 32.9141H55.6829C56.162 32.9089 56.537 32.8073 56.8079 32.6094C57.0839 32.4062 57.2193 32.1328 57.2141 31.7891C57.2193 31.4505 57.0839 31.1875 56.8079 31C56.5318 30.8073 56.1516 30.7109 55.6672 30.7109H53.6516V32.9141ZM64.2063 38.1797C63.3521 38.1797 62.6125 37.9948 61.9875 37.625C61.3625 37.2552 60.8808 36.7344 60.5422 36.0625C60.2089 35.3854 60.0422 34.5964 60.0422 33.6953C60.0422 32.7995 60.2063 32.0104 60.5344 31.3281C60.8678 30.6458 61.3339 30.1146 61.9329 29.7344C62.537 29.349 63.2454 29.1562 64.0579 29.1562C64.5527 29.1562 65.0318 29.237 65.4954 29.3984C65.9589 29.5599 66.3756 29.8151 66.7454 30.1641C67.1152 30.513 67.4068 30.9661 67.6204 31.5234C67.8391 32.0807 67.9485 32.7526 67.9485 33.5391V34.1484H61.0032V32.875H67.0735L66.2844 33.2969C66.2844 32.7604 66.2011 32.2865 66.0344 31.875C65.8678 31.4635 65.6178 31.1432 65.2844 30.9141C64.9563 30.6797 64.5474 30.5625 64.0579 30.5625C63.5683 30.5625 63.149 30.6797 62.8 30.9141C62.4563 31.1484 62.1933 31.4583 62.011 31.8438C61.8287 32.2292 61.7375 32.651 61.7375 33.1094V33.9766C61.7375 34.5755 61.8417 35.0833 62.05 35.5C62.2584 35.9167 62.5474 36.2344 62.9172 36.4531C63.2922 36.6719 63.7271 36.7812 64.2219 36.7812C64.5448 36.7812 64.8365 36.7344 65.0969 36.6406C65.3625 36.5469 65.5917 36.4062 65.7844 36.2188C65.9771 36.0312 66.123 35.7995 66.2219 35.5234L67.8313 35.8281C67.7011 36.2969 67.4719 36.7083 67.1438 37.0625C66.8157 37.4167 66.4016 37.6927 65.9016 37.8906C65.4068 38.0833 64.8417 38.1797 64.2063 38.1797ZM69.136 41.2656V29.2656H70.7766V30.6875H70.9172C71.0214 30.5052 71.1646 30.2943 71.3469 30.0547C71.5344 29.8151 71.7948 29.6068 72.1282 29.4297C72.4615 29.2474 72.8964 29.1562 73.4329 29.1562C74.136 29.1562 74.761 29.3333 75.3079 29.6875C75.8599 30.0417 76.2948 30.5547 76.6125 31.2266C76.9303 31.8984 77.0891 32.7083 77.0891 33.6562C77.0891 34.5938 76.9329 35.401 76.6204 36.0781C76.3079 36.75 75.8756 37.2682 75.3235 37.6328C74.7766 37.9922 74.149 38.1719 73.4407 38.1719C72.9146 38.1719 72.4823 38.0833 72.1438 37.9062C71.8105 37.724 71.5474 37.513 71.3547 37.2734C71.1672 37.0339 71.0214 36.8229 70.9172 36.6406H70.8235V41.2656H69.136ZM73.0735 36.7266C73.5787 36.7266 74.0006 36.5911 74.3391 36.3203C74.6777 36.0495 74.9329 35.6823 75.1047 35.2188C75.2818 34.75 75.3704 34.224 75.3704 33.6406C75.3704 33.0625 75.2844 32.5443 75.1125 32.0859C74.9407 31.6276 74.6855 31.2656 74.3469 31C74.0084 30.7344 73.5839 30.6016 73.0735 30.6016C72.5787 30.6016 72.162 30.7292 71.8235 30.9844C71.4849 31.2344 71.2271 31.5885 71.05 32.0469C70.8782 32.5 70.7922 33.0312 70.7922 33.6406C70.7922 34.25 70.8808 34.7865 71.0579 35.25C71.2349 35.7135 71.4928 36.0755 71.8313 36.3359C72.175 36.5964 72.5891 36.7266 73.0735 36.7266ZM84.2297 32.8984V34.3672H79.5032V32.8984H84.2297ZM79.9719 29.2656V38H78.3235V29.2656H79.9719ZM85.4172 29.2656V38H83.761V29.2656H85.4172ZM89.5735 38.1875C89.0214 38.1875 88.5214 38.0859 88.0735 37.8828C87.6256 37.6745 87.2714 37.3724 87.011 36.9766C86.7506 36.5807 86.6204 36.099 86.6204 35.5312C86.6204 35.0365 86.7141 34.6328 86.9016 34.3203C87.0943 34.0026 87.3521 33.75 87.675 33.5625C87.998 33.375 88.3573 33.2344 88.7532 33.1406C89.149 33.0469 89.5553 32.974 89.9719 32.9219C90.498 32.8646 90.9224 32.8151 91.2454 32.7734C91.5683 32.7318 91.8027 32.6667 91.9485 32.5781C92.0995 32.4844 92.175 32.3359 92.175 32.1328V32.0938C92.175 31.599 92.0344 31.2161 91.7532 30.9453C91.4771 30.6745 91.0657 30.5391 90.5188 30.5391C89.9511 30.5391 89.5006 30.6641 89.1672 30.9141C88.8391 31.1589 88.6125 31.4375 88.4875 31.75L86.886 31.3828C87.0787 30.8516 87.3573 30.4245 87.7219 30.1016C88.0917 29.7734 88.5136 29.5339 88.9875 29.3828C89.4667 29.2318 89.9667 29.1562 90.4875 29.1562C90.8365 29.1562 91.2063 29.1979 91.5969 29.2812C91.9875 29.3594 92.3547 29.5078 92.6985 29.7266C93.0474 29.9401 93.3313 30.2474 93.55 30.6484C93.7688 31.0495 93.8782 31.5677 93.8782 32.2031V38H92.2141V36.8047H92.1516C92.0474 37.0182 91.8834 37.2318 91.6594 37.4453C91.4407 37.6589 91.1594 37.8359 90.8157 37.9766C90.4719 38.1172 90.0579 38.1875 89.5735 38.1875ZM89.9407 36.8281C90.4146 36.8281 90.8183 36.737 91.1516 36.5547C91.4849 36.3672 91.7402 36.1224 91.9172 35.8203C92.0943 35.5182 92.1829 35.1979 92.1829 34.8594V33.7266C92.1204 33.7839 92.0032 33.8385 91.8313 33.8906C91.6594 33.9427 91.4641 33.987 91.2454 34.0234C91.0266 34.0599 90.8131 34.0938 90.6047 34.125C90.3964 34.151 90.2219 34.1719 90.0813 34.1875C89.7532 34.2344 89.4537 34.3073 89.1829 34.4062C88.912 34.5 88.6933 34.6406 88.5266 34.8281C88.3652 35.0104 88.2844 35.2526 88.2844 35.5547C88.2844 35.9766 88.4407 36.2943 88.7532 36.5078C89.0657 36.7214 89.4615 36.8281 89.9407 36.8281ZM100.714 38V30.7188H98.6125C98.1178 30.724 97.7323 30.8411 97.4563 31.0703C97.1803 31.2995 97.0448 31.6016 97.05 31.9766C97.0448 32.3464 97.1698 32.6458 97.425 32.875C97.6803 33.099 98.0396 33.2109 98.5032 33.2109H101.198V34.5859H98.5032C97.8573 34.5859 97.3 34.4792 96.8313 34.2656C96.3678 34.0521 96.0084 33.7474 95.7532 33.3516C95.5032 32.9557 95.3808 32.4896 95.386 31.9531C95.3808 31.4062 95.5084 30.9323 95.7688 30.5312C96.0292 30.1302 96.4016 29.8203 96.886 29.6016C97.3704 29.3776 97.9459 29.2656 98.6125 29.2656H102.308V38H100.714ZM94.9797 38L97.4407 33.5859H99.1829L96.7141 38H94.9797ZM111.159 38.1797C110.321 38.1797 109.597 37.987 108.988 37.6016C108.378 37.2161 107.909 36.6849 107.581 36.0078C107.253 35.3307 107.089 34.5547 107.089 33.6797C107.089 32.7891 107.256 32.0052 107.589 31.3281C107.928 30.6458 108.399 30.1146 109.003 29.7344C109.613 29.349 110.326 29.1562 111.144 29.1562C111.81 29.1562 112.402 29.2786 112.917 29.5234C113.438 29.763 113.857 30.1042 114.175 30.5469C114.498 30.9896 114.688 31.5052 114.745 32.0938H113.089C113.032 31.8177 112.92 31.5651 112.753 31.3359C112.592 31.1068 112.378 30.9245 112.113 30.7891C111.847 30.6536 111.532 30.5859 111.167 30.5859C110.693 30.5859 110.279 30.7109 109.925 30.9609C109.576 31.2057 109.303 31.5573 109.105 32.0156C108.907 32.474 108.808 33.0156 108.808 33.6406C108.808 34.2708 108.904 34.8203 109.097 35.2891C109.29 35.7578 109.563 36.1198 109.917 36.375C110.277 36.625 110.693 36.75 111.167 36.75C111.657 36.75 112.073 36.6146 112.417 36.3438C112.766 36.0729 112.99 35.7031 113.089 35.2344H114.745C114.688 35.8021 114.506 36.3073 114.198 36.75C113.891 37.1927 113.48 37.5417 112.964 37.7969C112.448 38.0521 111.847 38.1797 111.159 38.1797ZM115.253 38L115.245 36.5312H115.55C115.878 36.526 116.136 36.4297 116.323 36.2422C116.516 36.0495 116.659 35.7083 116.753 35.2188C116.852 34.7292 116.917 34.0365 116.948 33.1406L117.105 29.2656H123.191V38H121.527V30.7344H118.667L118.527 33.7109C118.495 34.4297 118.425 35.0573 118.316 35.5938C118.206 36.1302 118.045 36.5781 117.831 36.9375C117.618 37.2917 117.344 37.5573 117.011 37.7344C116.678 37.9115 116.271 38 115.792 38H115.253ZM125.558 41.2656C125.303 41.2708 125.071 41.2526 124.863 41.2109C124.659 41.1745 124.503 41.1302 124.394 41.0781L124.808 39.6953L124.925 39.7266C125.357 39.8359 125.722 39.8281 126.019 39.7031C126.321 39.5833 126.573 39.2474 126.777 38.6953L126.988 38.1172L123.8 29.2656H125.62L127.823 36.0469H127.917L130.128 29.2656H131.948L128.355 39.1562C128.188 39.6146 127.977 40 127.722 40.3125C127.467 40.6302 127.159 40.8672 126.8 41.0234C126.446 41.1849 126.032 41.2656 125.558 41.2656ZM132.323 38L135.714 33.5312L132.363 29.2656H134.339L137.042 32.8984H137.644V29.2656H139.347V32.8984H139.933L142.628 29.2656H144.613L141.277 33.5312L144.652 38H142.636L139.917 34.3594H139.347V38H137.644V34.3594H137.073L134.339 38H132.323ZM152.433 26.0234L153.136 27.0938C152.881 27.3333 152.587 27.5026 152.253 27.6016C151.92 27.7005 151.537 27.763 151.105 27.7891C150.672 27.8151 150.178 27.8385 149.62 27.8594C148.99 27.875 148.472 28.0104 148.066 28.2656C147.665 28.5156 147.355 28.8854 147.136 29.375C146.917 29.8646 146.777 30.4818 146.714 31.2266H146.823C147.1 30.6849 147.49 30.2812 147.995 30.0156C148.506 29.7448 149.079 29.6094 149.714 29.6094C150.417 29.6094 151.042 29.7708 151.589 30.0938C152.136 30.4115 152.568 30.8802 152.886 31.5C153.204 32.1198 153.36 32.875 153.355 33.7656C153.36 34.6719 153.198 35.4557 152.87 36.1172C152.542 36.7786 152.076 37.2865 151.472 37.6406C150.873 37.9948 150.167 38.1745 149.355 38.1797C148.131 38.1745 147.152 37.7578 146.417 36.9297C145.683 36.0964 145.313 34.8776 145.308 33.2734V32.4219C145.313 30.4219 145.672 28.9193 146.386 27.9141C147.1 26.9089 148.165 26.3906 149.581 26.3594C150.04 26.349 150.448 26.3464 150.808 26.3516C151.167 26.3568 151.482 26.3411 151.753 26.3047C152.024 26.263 152.251 26.1693 152.433 26.0234ZM149.355 36.7578C149.834 36.7526 150.243 36.6302 150.581 36.3906C150.92 36.151 151.183 35.8099 151.37 35.3672C151.558 34.9245 151.649 34.401 151.644 33.7969C151.649 33.2083 151.558 32.7083 151.37 32.2969C151.183 31.8802 150.917 31.5625 150.573 31.3438C150.23 31.125 149.816 31.0156 149.331 31.0156C148.977 31.0156 148.659 31.0781 148.378 31.2031C148.097 31.3281 147.857 31.5104 147.659 31.75C147.462 31.9844 147.308 32.2734 147.198 32.6172C147.094 32.9609 147.037 33.3542 147.027 33.7969C147.027 34.6927 147.232 35.4089 147.644 35.9453C148.06 36.4818 148.631 36.7526 149.355 36.7578ZM157.12 38.1875C156.568 38.1875 156.068 38.0859 155.62 37.8828C155.172 37.6745 154.818 37.3724 154.558 36.9766C154.297 36.5807 154.167 36.099 154.167 35.5312C154.167 35.0365 154.261 34.6328 154.448 34.3203C154.641 34.0026 154.899 33.75 155.222 33.5625C155.545 33.375 155.904 33.2344 156.3 33.1406C156.696 33.0469 157.102 32.974 157.519 32.9219C158.045 32.8646 158.469 32.8151 158.792 32.7734C159.115 32.7318 159.35 32.6667 159.495 32.5781C159.646 32.4844 159.722 32.3359 159.722 32.1328V32.0938C159.722 31.599 159.581 31.2161 159.3 30.9453C159.024 30.6745 158.613 30.5391 158.066 30.5391C157.498 30.5391 157.047 30.6641 156.714 30.9141C156.386 31.1589 156.159 31.4375 156.034 31.75L154.433 31.3828C154.626 30.8516 154.904 30.4245 155.269 30.1016C155.639 29.7734 156.06 29.5339 156.534 29.3828C157.014 29.2318 157.514 29.1562 158.034 29.1562C158.383 29.1562 158.753 29.1979 159.144 29.2812C159.534 29.3594 159.902 29.5078 160.245 29.7266C160.594 29.9401 160.878 30.2474 161.097 30.6484C161.316 31.0495 161.425 31.5677 161.425 32.2031V38H159.761V36.8047H159.698C159.594 37.0182 159.43 37.2318 159.206 37.4453C158.988 37.6589 158.706 37.8359 158.363 37.9766C158.019 38.1172 157.605 38.1875 157.12 38.1875ZM157.488 36.8281C157.962 36.8281 158.365 36.737 158.698 36.5547C159.032 36.3672 159.287 36.1224 159.464 35.8203C159.641 35.5182 159.73 35.1979 159.73 34.8594V33.7266C159.667 33.7839 159.55 33.8385 159.378 33.8906C159.206 33.9427 159.011 33.987 158.792 34.0234C158.573 34.0599 158.36 34.0938 158.152 34.125C157.943 34.151 157.769 34.1719 157.628 34.1875C157.3 34.2344 157.001 34.3073 156.73 34.4062C156.459 34.5 156.24 34.6406 156.073 34.8281C155.912 35.0104 155.831 35.2526 155.831 35.5547C155.831 35.9766 155.988 36.2943 156.3 36.5078C156.613 36.7214 157.008 36.8281 157.488 36.8281Z" fill="#363340"/>
</svg>
