<svg width="26" height="26" viewBox="0 0 26 26" fill="none" xmlns="http://www.w3.org/2000/svg">
<path d="M15.1666 5.41663H19.4999C20.697 5.41663 21.6666 6.38621 21.6666 7.58329V21.6666C21.6666 22.8637 20.697 23.8333 19.4999 23.8333H6.49992C5.30284 23.8333 4.33325 22.8637 4.33325 21.6666V7.58329C4.33325 6.38621 5.30284 5.41663 6.49992 5.41663H10.8333" stroke="#356FF4" stroke-width="1.5" stroke-linecap="round" stroke-linejoin="round"/>
<path d="M14.7236 11.5473C15.6755 12.4992 15.6755 14.0425 14.7236 14.9944C13.7717 15.9464 12.2283 15.9464 11.2764 14.9944C10.3245 14.0425 10.3245 12.4992 11.2764 11.5473C12.2283 10.5954 13.7717 10.5954 14.7236 11.5473" stroke="#356FF4" stroke-width="1.5" stroke-linecap="round" stroke-linejoin="round"/>
<path d="M16.8946 20.5833C16.7051 20.1077 16.4126 19.6809 16.0366 19.3331V19.3331C15.4007 18.7438 14.5666 18.4166 13.6999 18.4166H12.3002C11.4336 18.4166 10.5994 18.7438 9.96347 19.3331V19.3331C9.58755 19.6809 9.29505 20.1077 9.10547 20.5833" stroke="#356FF4" stroke-width="1.5" stroke-linecap="round" stroke-linejoin="round"/>
<path fill-rule="evenodd" clip-rule="evenodd" d="M14.0833 7.58329H11.9166C11.3186 7.58329 10.8333 7.09796 10.8333 6.49996V3.24996C10.8333 2.65196 11.3186 2.16663 11.9166 2.16663H14.0833C14.6813 2.16663 15.1666 2.65196 15.1666 3.24996V6.49996C15.1666 7.09796 14.6813 7.58329 14.0833 7.58329Z" stroke="#356FF4" stroke-width="1.5" stroke-linecap="round" stroke-linejoin="round"/>
</svg>
