<svg width="21" height="21" viewBox="0 0 21 21" fill="none" xmlns="http://www.w3.org/2000/svg">
<path fill-rule="evenodd" clip-rule="evenodd" d="M10.5 18.375V18.375C6.15037 18.375 2.625 14.8496 2.625 10.5V10.5C2.625 6.15037 6.15037 2.625 10.5 2.625V2.625C14.8496 2.625 18.375 6.15037 18.375 10.5V10.5C18.375 14.8496 14.8496 18.375 10.5 18.375Z" stroke="#3470F4" stroke-width="1.5" stroke-linecap="round" stroke-linejoin="round"/>
<path d="M10.5 11.5936V11.3749C10.5 10.66 10.9419 10.2724 11.3846 9.97488C11.8169 9.68351 12.25 9.30376 12.25 8.60376C12.25 7.63688 11.4669 6.85376 10.5 6.85376C9.53312 6.85376 8.75 7.63688 8.75 8.60376" stroke="#3470F4" stroke-width="1.5" stroke-linecap="round" stroke-linejoin="round"/>
<path d="M10.4991 14C10.3784 14 10.2804 14.098 10.2813 14.2188C10.2813 14.3395 10.3793 14.4375 10.5 14.4375C10.6208 14.4375 10.7188 14.3395 10.7188 14.2188C10.7188 14.098 10.6208 14 10.4991 14" stroke="#3470F4" stroke-width="1.5" stroke-linecap="round" stroke-linejoin="round"/>
</svg>
