<svg width="18" height="18" viewBox="0 0 18 18" fill="none" xmlns="http://www.w3.org/2000/svg">
<path d="M8.22313 0.527943C8.45182 -0.175915 9.4476 -0.175916 9.67629 0.527942L11.2653 5.41832C11.3675 5.73309 11.6609 5.94621 11.9919 5.94621H17.1339C17.874 5.94621 18.1817 6.89324 17.583 7.32825L13.423 10.3507C13.1552 10.5452 13.0431 10.89 13.1454 11.2048L14.7344 16.0952C14.9631 16.799 14.1575 17.3844 13.5588 16.9493L9.39876 13.9269C9.131 13.7324 8.76842 13.7324 8.50066 13.9269L4.34066 16.9493C3.74192 17.3843 2.93632 16.7991 3.16502 16.0952L4.754 11.2048C4.85628 10.89 4.74423 10.5452 4.47647 10.3507L0.31647 7.32825C-0.282268 6.89324 0.0254414 5.94621 0.765522 5.94621H5.90756C6.23854 5.94621 6.53187 5.73309 6.63415 5.41831L8.22313 0.527943Z" fill="#FFCC01"/>
</svg>
