<svg width="21" height="21" viewBox="0 0 21 21" fill="none" xmlns="http://www.w3.org/2000/svg">
<path d="M21 0V21H0V0H21Z" fill="white" fill-opacity="0.01"/>
<path d="M19.1758 10.106C19.0942 7.87099 18.1524 5.75399 16.547 4.19696C14.9416 2.63993 12.7968 1.76326 10.5604 1.75H10.5182C9.01215 1.74888 7.53183 2.13989 6.22275 2.88453C4.91371 3.62918 3.82108 4.70181 3.0524 5.99689C2.28371 7.29197 1.86545 8.76489 1.83876 10.2706C1.81208 11.7765 2.17789 13.2632 2.90021 14.5847L2.13322 19.1743C2.13197 19.1837 2.13274 19.1933 2.13549 19.2024C2.13822 19.2115 2.14287 19.2199 2.14911 19.2271C2.15535 19.2342 2.16305 19.24 2.17168 19.2439C2.18031 19.2479 2.18969 19.2499 2.19919 19.25H2.21239L6.75186 18.2403C7.92476 18.8033 9.2092 19.0955 10.5103 19.0952C10.593 19.0952 10.6756 19.0952 10.7583 19.0952C11.9028 19.0625 13.0295 18.8035 14.0733 18.3331C15.1172 17.8627 16.0575 17.1903 16.8401 16.3545C17.6227 15.5188 18.2321 14.5363 18.6329 13.4638C19.0338 12.3913 19.2183 11.2501 19.1758 10.106ZM10.7152 17.5867C10.6466 17.5867 10.578 17.5867 10.5103 17.5867C9.3604 17.5881 8.22698 17.313 7.20572 16.7845L6.97351 16.6632L3.89501 17.3906L4.46321 14.276L4.33128 14.0526C3.70113 12.9782 3.36171 11.7583 3.34646 10.5128C3.33121 9.26737 3.64063 8.0394 4.24427 6.94994C4.84792 5.86045 5.72494 4.947 6.78897 4.29956C7.85301 3.65211 9.06733 3.29299 10.3124 3.25759C10.3816 3.25759 10.4511 3.25759 10.5208 3.25759C12.4006 3.26316 14.2029 4.00696 15.5395 5.32873C16.8761 6.6505 17.64 8.44446 17.6665 10.324C17.693 12.2036 16.9801 14.0184 15.6814 15.3774C14.3826 16.7364 12.602 17.5307 10.7231 17.5894L10.7152 17.5867Z" fill="#25D366"/>
<path d="M7.18411 6.30506C7.28201 6.2614 7.38768 6.23782 7.49484 6.23573L7.51333 6.23309C7.65846 6.23749 7.8036 6.24189 7.93024 6.25069L7.93119 6.25076C8.0849 6.26217 8.26042 6.27521 8.40787 6.64825C8.58993 7.0854 8.97784 8.17518 9.0297 8.28601C9.06231 8.34417 9.07993 8.40944 9.08098 8.47612C9.08208 8.54273 9.06657 8.60859 9.03589 8.66774C8.97656 8.7952 8.89956 8.91362 8.80716 9.01955C8.69458 9.14363 8.57762 9.28695 8.46854 9.39078C8.35945 9.49456 8.23987 9.60889 8.35945 9.83056C8.66897 10.4016 9.06143 10.9235 9.52402 11.3795C10.0191 11.8642 10.6006 12.2521 11.2383 12.5229C11.3121 12.5615 11.3935 12.5835 11.4767 12.5872C11.5218 12.5863 11.5663 12.5761 11.6072 12.557C11.6481 12.5379 11.6846 12.5104 11.7141 12.4763C11.8496 12.3391 12.2534 11.8632 12.4292 11.6442C12.4567 11.5993 12.4946 11.5617 12.5398 11.5347C12.5851 11.5077 12.6362 11.4922 12.6887 11.4894C12.7694 11.4954 12.8484 11.5159 12.9218 11.5501C13.1197 11.6293 14.1726 12.1922 14.3872 12.3048C14.6018 12.4173 14.7443 12.4807 14.7962 12.5687C14.8481 12.6566 14.8349 13.0964 14.6379 13.5995C14.4409 14.1027 13.5375 14.5653 13.1373 14.5899C13.0186 14.597 12.9051 14.6128 12.7547 14.6128C12.3897 14.6128 11.8268 14.5178 10.5426 13.9645C8.3577 13.0261 7.03133 10.7119 6.92665 10.5632L6.92581 10.562C6.81805 10.409 6.07356 9.35185 6.10689 8.28338C6.14032 7.21206 6.71819 6.70191 6.9249 6.48993C6.99807 6.41159 7.08621 6.34872 7.18411 6.30506Z" fill="#25D366"/>
</svg>
