<svg width="26" height="26" viewBox="0 0 26 26" fill="none" xmlns="http://www.w3.org/2000/svg">
<circle cx="20.0417" cy="20.5833" r="3.79167" stroke="white" stroke-width="1.5" stroke-linecap="round" stroke-linejoin="round"/>
<path d="M21.3056 19.9514L19.7266 21.5312L18.7778 20.5833" stroke="white" stroke-width="1.5" stroke-linecap="round" stroke-linejoin="round"/>
<path fill-rule="evenodd" clip-rule="evenodd" d="M8.48763 8.66671H17.5121C18.1105 8.66671 18.5955 8.18168 18.5955 7.58337V6.67895C18.5955 5.19491 18.0059 3.77165 16.9566 2.72228C15.9072 1.6729 14.4839 1.08337 12.9999 1.08337V1.08337C11.5158 1.08337 10.0926 1.6729 9.04321 2.72228C7.99383 3.77165 7.4043 5.19491 7.4043 6.67895V7.58337C7.4043 8.18168 7.88932 8.66671 8.48763 8.66671Z" stroke="white" stroke-width="1.5" stroke-linecap="round" stroke-linejoin="round"/>
<path d="M7.0415 8.66667H18.9582" stroke="white" stroke-width="1.5" stroke-linecap="round" stroke-linejoin="round"/>
<path d="M17.3332 8.66663V10.8328C17.3332 13.226 15.3931 15.1661 12.9998 15.1661V15.1661C10.6066 15.1661 8.6665 13.226 8.6665 10.8328V8.66663" stroke="white" stroke-width="1.5" stroke-linecap="round" stroke-linejoin="round"/>
<path d="M10.7263 14.522L9.94196 17.6597" stroke="white" stroke-width="1.5" stroke-linecap="round" stroke-linejoin="round"/>
<path d="M14.625 1.32312V2.81724C14.625 3.71471 13.8975 4.44224 13 4.44224V4.44224C12.1025 4.44224 11.375 3.71471 11.375 2.81724V1.32312" stroke="white" stroke-width="1.5" stroke-linecap="round" stroke-linejoin="round"/>
<path d="M15.2764 14.522L15.7083 16.25" stroke="white" stroke-width="1.5" stroke-linecap="round" stroke-linejoin="round"/>
<path d="M14.0833 18.3916C12.5557 18.6781 10.9765 18.3574 9.6815 17.4978H9.68144C9.46522 17.3537 9.20059 17.3013 8.94577 17.3523L5.8626 17.9689C4.34346 18.2727 3.24998 19.6066 3.25 21.1558V21.6666" stroke="white" stroke-width="1.5" stroke-linecap="round" stroke-linejoin="round"/>
</svg>
